<?xml version="1.0" encoding="UTF-8" standalone="no"?>
<!DOCTYPE svg PUBLIC "-//W3C//DTD SVG 1.1//EN" "http://www.w3.org/Graphics/SVG/1.1/DTD/svg11.dtd">
<!-- Generated by Microsoft Visio, SVG Export PWMbasic.svg Page-1 -->
<svg xmlns="http://www.w3.org/2000/svg" xmlns:xlink="http://www.w3.org/1999/xlink" xmlns:ev="http://www.w3.org/2001/xml-events"
		xmlns:v="http://schemas.microsoft.com/visio/2003/SVGExtensions/" width="7.30989in" height="2.39063in"
		viewBox="0 0 526.312 172.125" xml:space="preserve" color-interpolation-filters="sRGB" class="st11">
	<v:documentProperties v:langID="1033" v:viewMarkup="false"/>

	<style type="text/css">
	<![CDATA[
		.st1 {stroke:#000000;stroke-linecap:round;stroke-linejoin:round;stroke-width:0.75}
		.st2 {marker-end:url(#mrkr4-9);stroke:#000000;stroke-linecap:round;stroke-linejoin:round;stroke-width:0.75}
		.st3 {fill:#000000;fill-opacity:1;stroke:#000000;stroke-opacity:1;stroke-width:0.22935779816514}
		.st4 {fill:none;stroke:none;stroke-linecap:round;stroke-linejoin:round;stroke-width:0.75}
		.st5 {fill:#000000;font-family:Calibri;font-size:1.00001em}
		.st6 {font-size:1em}
		.st7 {marker-end:url(#mrkr4-40);stroke:#000000;stroke-linecap:round;stroke-linejoin:round;stroke-width:0.75}
		.st8 {marker-end:url(#mrkr4-68);marker-start:url(#mrkr4-66);stroke:#000000;stroke-linecap:round;stroke-linejoin:round;stroke-width:1}
		.st9 {fill:#000000;fill-opacity:1;stroke:#000000;stroke-opacity:1;stroke-width:0.28409090909091}
		.st10 {stroke:#000000;stroke-dasharray:3.5,2.5;stroke-linecap:round;stroke-linejoin:round;stroke-width:0.5}
		.st11 {fill:none;fill-rule:evenodd;font-size:12px;overflow:visible;stroke-linecap:square;stroke-miterlimit:3}
	]]>
	</style>

	<defs id="Markers">
		<g id="lend4">
			<path d="M 2 1 L 0 0 L 2 -1 L 2 1 " style="stroke:none"/>
		</g>
		<marker id="mrkr4-9" class="st3" v:arrowType="4" v:arrowSize="2" v:setback="8.72" refX="-8.72" orient="auto"
				markerUnits="strokeWidth" overflow="visible">
			<use xlink:href="#lend4" transform="scale(-4.36,-4.36) "/>
		</marker>
		<marker id="mrkr4-40" class="st3" v:arrowType="4" v:arrowSize="2" v:setback="8.24" refX="-8.24" orient="auto"
				markerUnits="strokeWidth" overflow="visible">
			<use xlink:href="#lend4" transform="scale(-4.36,-4.36) "/>
		</marker>
		<marker id="mrkr4-66" class="st9" v:arrowType="4" v:arrowSize="2" v:setback="6.68" refX="6.68" orient="auto"
				markerUnits="strokeWidth" overflow="visible">
			<use xlink:href="#lend4" transform="scale(3.52) "/>
		</marker>
		<marker id="mrkr4-68" class="st9" v:arrowType="4" v:arrowSize="2" v:setback="7.04" refX="-7.04" orient="auto"
				markerUnits="strokeWidth" overflow="visible">
			<use xlink:href="#lend4" transform="scale(-3.52,-3.52) "/>
		</marker>
	</defs>
	<g v:mID="0" v:index="1" v:groupContext="foregroundPage">
		<title>Page-1</title>
		<v:pageProperties v:drawingScale="1" v:pageScale="1" v:drawingUnits="19" v:shadowOffsetX="9" v:shadowOffsetY="-9"/>
		<g id="shape362-1" v:mID="362" v:groupContext="shape" transform="translate(16.3119,-78.3126)">
			<title>Sheet.362</title>
			<path d="M0 172.13 L9 172.13 L9 122.63 L18.45 122.63 L18.45 172.13 L99 172.13 L99 122.63 L108 122.63 L108 172.13 L189
						 172.13 L189 122.63 L234 122.63 L234 172.13 L279 172.13 L279 122.63 L328.5 122.63 L328.5 172.13 L369 172.13
						 L369 122.63 L450 122.63 L450 172.13 L459 172.13" class="st1"/>
		</g>
		<g id="shape366-4" v:mID="366" v:groupContext="shape" transform="translate(7.31194,-51.3126)">
			<title>Sheet.366</title>
			<path d="M0 172.13 L504.21 172.13" class="st2"/>
		</g>
		<g id="shape367-10" v:mID="367" v:groupContext="shape" transform="translate(481.499,-51.3126)">
			<title>Sheet.367</title>
			<desc>Time</desc>
			<v:textBlock v:margins="rect(4,4,4,4)"/>
			<v:textRect cx="18" cy="165.375" width="36" height="13.5"/>
			<rect x="0" y="158.625" width="36" height="13.5" class="st4"/>
			<text x="4" y="168.98" class="st5" v:langID="1033"><v:paragraph/><v:tabList/>Time</text>		</g>
		<g id="shape368-13" v:mID="368" v:groupContext="shape" transform="translate(197.437,116.313) rotate(90)">
			<title>Sheet.368</title>
			<path d="M0 172.13 L13.5 172.13" class="st1"/>
		</g>
		<g id="shape369-16" v:mID="369" v:groupContext="shape" transform="translate(287.437,116.313) rotate(90)">
			<title>Sheet.369</title>
			<path d="M0 172.13 L13.5 172.13" class="st1"/>
		</g>
		<g id="shape370-19" v:mID="370" v:groupContext="shape" transform="translate(377.437,116.313) rotate(90)">
			<title>Sheet.370</title>
			<path d="M0 172.13 L13.5 172.13" class="st1"/>
		</g>
		<g id="shape371-22" v:mID="371" v:groupContext="shape" transform="translate(467.437,116.313) rotate(90)">
			<title>Sheet.371</title>
			<path d="M0 172.13 L13.5 172.13" class="st1"/>
		</g>
		<g id="shape372-25" v:mID="372" v:groupContext="shape" transform="translate(557.437,116.313) rotate(90)">
			<title>Sheet.372</title>
			<path d="M0 172.13 L13.5 172.13" class="st1"/>
		</g>
		<g id="shape373-28" v:mID="373" v:groupContext="shape" transform="translate(647.437,116.313) rotate(90)">
			<title>Sheet.373</title>
			<path d="M0 172.13 L13.5 172.13" class="st1"/>
		</g>
		<g id="shape374-31" v:mID="374" v:groupContext="shape" transform="translate(43.3119,-5.25009)">
			<title>Sheet.374</title>
			<desc>Regular periods that define when a new pulse can start</desc>
			<v:textBlock v:margins="rect(4,4,4,4)"/>
			<v:textRect cx="74.25" cy="165.375" width="148.5" height="13.5"/>
			<rect x="0" y="158.625" width="148.5" height="13.5" class="st4"/>
			<text x="4" y="162.38" class="st5" v:langID="1033"><v:paragraph v:spLine="-1"/><v:tabList/>Regular periods that define <tspan
						x="4" dy="1em" class="st6">when a new pulse can start </tspan> </text>		</g>
		<g id="shape375-35" v:mID="375" v:groupContext="shape" transform="translate(-78.6489,272.586) rotate(-135)">
			<title>Sheet.375</title>
			<path d="M-0 172.13 A21.1341 16.6947 123.64 0 1 20.18 167.81 L20.46 168.05" class="st7"/>
		</g>
		<g id="shape378-41" v:mID="378" v:groupContext="shape" transform="translate(41.0619,-158.25)">
			<title>Sheet.378</title>
			<desc>10% duty cycle</desc>
			<v:textBlock v:margins="rect(4,4,4,4)"/>
			<v:textRect cx="51.75" cy="165.375" width="103.5" height="13.5"/>
			<rect x="0" y="158.625" width="103.5" height="13.5" class="st4"/>
			<text x="15.48" y="168.38" class="st5" v:langID="1033"><v:paragraph v:spLine="-1" v:horizAlign="1"/><v:tabList/>10% duty cycle</text>		</g>
		<g id="shape379-44" v:mID="379" v:groupContext="shape" transform="translate(191.812,-158.25)">
			<title>Sheet.379</title>
			<desc>50% duty cycle</desc>
			<v:textBlock v:margins="rect(4,4,4,4)"/>
			<v:textRect cx="90" cy="165.375" width="180" height="13.5"/>
			<rect x="0" y="158.625" width="180" height="13.5" class="st4"/>
			<text x="53.73" y="168.38" class="st5" v:langID="1033"><v:paragraph v:spLine="-1" v:horizAlign="1"/><v:tabList/>50% duty cycle</text>		</g>
		<g id="shape380-47" v:mID="380" v:groupContext="shape" transform="translate(416.812,-158.25)">
			<title>Sheet.380</title>
			<desc>90% duty cycle</desc>
			<v:textBlock v:margins="rect(4,4,4,4)"/>
			<v:textRect cx="54.5625" cy="165.375" width="109.13" height="13.5"/>
			<rect x="0" y="158.625" width="109.125" height="13.5" class="st4"/>
			<text x="18.3" y="168.38" class="st5" v:langID="1033"><v:paragraph v:spLine="-1" v:horizAlign="1"/><v:tabList/>90% duty cycle</text>		</g>
		<g id="shape381-50" v:mID="381" v:groupContext="shape" transform="translate(290.338,285.532) rotate(-38.6598) scale(1,-1)">
			<title>Sheet.381</title>
			<path d="M-0 172.13 A22.5 18 141.34 0 1 23.69 168.06 L23.97 168.28" class="st7"/>
		</g>
		<g id="shape382-55" v:mID="382" v:groupContext="shape" transform="translate(-56.5631,144.375) rotate(-90)">
			<title>Sheet.382</title>
			<path d="M0 172.13 L4.46 172.13" class="st2"/>
		</g>
		<g id="shape383-60" v:mID="383" v:groupContext="shape" transform="translate(295.312,-32.2501)">
			<title>Sheet.383</title>
			<path d="M6.68 172.13 L7.04 172.13 L82.96 172.13" class="st8"/>
		</g>
		<g id="shape384-69" v:mID="384" v:groupContext="shape" transform="translate(245.812,-5.25009)">
			<title>Sheet.384</title>
			<desc>Pulse period (= 1 / pulse frequency) Also known as “pulse win...</desc>
			<v:textBlock v:margins="rect(4,4,4,4)"/>
			<v:textRect cx="94.5" cy="165.375" width="189" height="13.5"/>
			<rect x="0" y="158.625" width="189" height="13.5" class="st4"/>
			<text x="7.87" y="162.38" class="st5" v:langID="1033"><v:paragraph v:spLine="-1" v:horizAlign="1"/><v:tabList/>Pulse period (= 1 / pulse frequency)<v:newlineChar/><tspan
						x="19.55" dy="1em" class="st6">Also known as </tspan>“pulse window”</text>		</g>
		<g id="shape385-73" v:mID="385" v:groupContext="shape" transform="translate(287.437,17.1875) rotate(90)">
			<title>Sheet.385</title>
			<path d="M0 172.13 L99.13 172.13" class="st10"/>
		</g>
		<g id="shape386-76" v:mID="386" v:groupContext="shape" transform="translate(197.437,17.1875) rotate(90)">
			<title>Sheet.386</title>
			<path d="M0 172.13 L99.13 172.13" class="st10"/>
		</g>
		<g id="shape387-79" v:mID="387" v:groupContext="shape" transform="translate(377.437,17.1875) rotate(90)">
			<title>Sheet.387</title>
			<path d="M0 172.13 L99.13 172.13" class="st10"/>
		</g>
		<g id="shape388-82" v:mID="388" v:groupContext="shape" transform="translate(467.437,17.1875) rotate(90)">
			<title>Sheet.388</title>
			<path d="M0 172.13 L99.13 172.13" class="st10"/>
		</g>
		<g id="shape389-85" v:mID="389" v:groupContext="shape" transform="translate(557.437,17.1875) rotate(90)">
			<title>Sheet.389</title>
			<path d="M0 172.13 L99.13 172.13" class="st10"/>
		</g>
		<g id="shape390-88" v:mID="390" v:groupContext="shape" transform="translate(647.437,17.1875) rotate(90)">
			<title>Sheet.390</title>
			<path d="M0 172.13 L99.13 172.13" class="st10"/>
		</g>
		<g id="shape391-91" v:mID="391" v:groupContext="shape"
				transform="translate(-94.4857,-85.7933) rotate(-56.4337) scale(-1,1)">
			<title>Sheet.391</title>
			<path d="M0 172.13 A23.5299 13.4761 169.01 0 1 26.24 169.22 L26.57 169.38" class="st7"/>
		</g>
		<g id="shape392-96" v:mID="392" v:groupContext="shape" transform="translate(97.8893,-85.7933) rotate(-56.4337) scale(-1,1)">
			<title>Sheet.392</title>
			<path d="M0 172.13 A23.4706 12.4687 170.52 0 1 26.15 169.42 L26.48 169.57" class="st7"/>
		</g>
		<g id="shape393-101" v:mID="393" v:groupContext="shape"
				transform="translate(286.889,-85.7933) rotate(-56.4337) scale(-1,1)">
			<title>Sheet.393</title>
			<path d="M0 172.13 A23.4706 12.4687 170.52 0 1 26.15 169.42 L26.48 169.57" class="st7"/>
		</g>
	</g>
</svg>
