<?xml version="1.0" encoding="UTF-8" standalone="no"?>
<!DOCTYPE svg PUBLIC "-//W3C//DTD SVG 1.1//EN" "http://www.w3.org/Graphics/SVG/1.1/DTD/svg11.dtd">
<!-- Generated by Microsoft Visio, SVG Export PWMapps.svg Page-1 -->
<svg xmlns="http://www.w3.org/2000/svg" xmlns:xlink="http://www.w3.org/1999/xlink" xmlns:ev="http://www.w3.org/2001/xml-events"
		xmlns:v="http://schemas.microsoft.com/visio/2003/SVGExtensions/" width="7.81859in" height="3.07422in"
		viewBox="0 0 562.939 221.344" xml:space="preserve" color-interpolation-filters="sRGB" class="st24">
	<v:documentProperties v:langID="1033" v:viewMarkup="false"/>

	<style type="text/css">
	<![CDATA[
		.st1 {stroke:#000000;stroke-linecap:round;stroke-linejoin:round;stroke-width:0.75}
		.st2 {fill:#ffffff;stroke:none;stroke-linecap:round;stroke-linejoin:round;stroke-width:0.24}
		.st3 {fill:#c8d6e6;stroke:none;stroke-linecap:round;stroke-linejoin:round;stroke-width:0.72}
		.st4 {fill:#fbf2ca;stroke:none;stroke-linecap:round;stroke-linejoin:round;stroke-width:0.72}
		.st5 {stroke:#000000;stroke-linecap:round;stroke-linejoin:round;stroke-width:0.72}
		.st6 {fill:#ff0000;stroke:#ff0000;stroke-linecap:round;stroke-linejoin:round;stroke-width:0.72}
		.st7 {fill:none;stroke:none;stroke-linecap:round;stroke-linejoin:round;stroke-width:0.72}
		.st8 {fill:#000000;font-family:Arial;font-size:0.833336em}
		.st9 {font-size:1em}
		.st10 {fill:#000000;stroke:#000000;stroke-linecap:round;stroke-linejoin:round;stroke-width:0.72}
		.st11 {fill:#000000;font-family:Arial;font-size:1.5em}
		.st12 {font-size:0.555557em}
		.st13 {marker-end:url(#mrkr4-154);marker-start:url(#mrkr4-152);stroke:#000000;stroke-linecap:round;stroke-linejoin:round;stroke-width:0.72}
		.st14 {fill:#000000;fill-opacity:1;stroke:#000000;stroke-opacity:1;stroke-width:0.28571428571429}
		.st15 {stroke:#ff0000;stroke-linecap:round;stroke-linejoin:round;stroke-width:1.5}
		.st16 {fill:#33cc33;stroke:#000000;stroke-linecap:round;stroke-linejoin:round;stroke-width:0.24}
		.st17 {stroke:#000000;stroke-linecap:round;stroke-linejoin:round;stroke-width:1.25}
		.st18 {fill:#d5f4d5;stroke:none;stroke-linecap:round;stroke-linejoin:round;stroke-width:0.24}
		.st19 {fill:#99e699;stroke:none;stroke-linecap:round;stroke-linejoin:round;stroke-width:0.24}
		.st20 {fill:#33cc33;stroke:none;stroke-linecap:round;stroke-linejoin:round;stroke-width:0.24}
		.st21 {fill:#000000;font-family:Arial;font-size:1.00001em}
		.st22 {marker-start:url(#mrkr4-314);stroke:#000000;stroke-linecap:round;stroke-linejoin:round;stroke-width:0.72}
		.st23 {fill:#000000;fill-opacity:1;stroke:#000000;stroke-opacity:1;stroke-width:0.18181818181818}
		.st24 {fill:none;fill-rule:evenodd;font-size:12px;overflow:visible;stroke-linecap:square;stroke-miterlimit:3}
	]]>
	</style>

	<defs id="Markers">
		<g id="lend4">
			<path d="M 2 1 L 0 0 L 2 -1 L 2 1 " style="stroke:none"/>
		</g>
		<marker id="mrkr4-152" class="st14" v:arrowType="4" v:arrowSize="1" v:setback="6.5" refX="6.5" orient="auto"
				markerUnits="strokeWidth" overflow="visible">
			<use xlink:href="#lend4" transform="scale(3.5) "/>
		</marker>
		<marker id="mrkr4-154" class="st14" v:arrowType="4" v:arrowSize="1" v:setback="7" refX="-7" orient="auto"
				markerUnits="strokeWidth" overflow="visible">
			<use xlink:href="#lend4" transform="scale(-3.5,-3.5) "/>
		</marker>
		<marker id="mrkr4-314" class="st23" v:arrowType="4" v:arrowSize="3" v:setback="10.5" refX="10.5" orient="auto"
				markerUnits="strokeWidth" overflow="visible">
			<use xlink:href="#lend4" transform="scale(5.5) "/>
		</marker>
	</defs>
	<g v:mID="0" v:index="1" v:groupContext="foregroundPage">
		<title>Page-1</title>
		<v:pageProperties v:drawingScale="1" v:pageScale="1" v:drawingUnits="19" v:shadowOffsetX="9" v:shadowOffsetY="-9"/>
		<g id="shape447-1" v:mID="447" v:groupContext="shape" transform="translate(80.9775,164.52) rotate(45) scale(1,-1)">
			<title>Sheet.447</title>
			<path d="M0 221.34 L22.06 221.34" class="st1"/>
		</g>
		<g id="shape448-4" v:mID="448" v:groupContext="shape" transform="translate(80.8256,-132.681) rotate(-45)">
			<title>Sheet.448</title>
			<path d="M0 221.34 L22.06 221.34" class="st1"/>
		</g>
		<g id="shape449-7" v:mID="449" v:groupContext="shape" transform="translate(234.641,-205.5)">
			<title>Sheet.449</title>
			<path d="M0 221.34 L21.37 221.34" class="st1"/>
		</g>
		<g id="shape450-10" v:mID="450" v:groupContext="shape" transform="translate(466.673,5.15625) rotate(90)">
			<title>Sheet.450</title>
			<path d="M0 221.34 L21.37 221.34" class="st1"/>
		</g>
		<g id="shape451-13" v:mID="451" v:groupContext="shape" transform="translate(238.016,-198.188)">
			<title>Circle.451</title>
			<v:userDefs>
				<v:ud v:nameU="visVersion" v:val="VT0(15):26"/>
			</v:userDefs>
			<path d="M0 214.03 A7.3125 7.3125 0 0 1 14.62 214.03 A7.3125 7.3125 0 1 1 0 214.03 Z" class="st2"/>
		</g>
		<g id="shape446-15" v:mID="446" v:groupContext="shape" transform="translate(-64.7475,166.17) rotate(45) scale(1,-1)">
			<title>Sheet.446</title>
			<path d="M0 221.34 L17.42 221.34" class="st1"/>
		</g>
		<g id="shape445-18" v:mID="445" v:groupContext="shape" transform="translate(-64.8674,-134.363) rotate(-45)">
			<title>Sheet.445</title>
			<path d="M0 221.34 L17.42 221.34" class="st1"/>
		</g>
		<g id="shape444-21" v:mID="444" v:groupContext="shape" transform="translate(89.5162,-205.5)">
			<title>Sheet.444</title>
			<path d="M0 221.34 L16.87 221.34" class="st1"/>
		</g>
		<g id="shape443-24" v:mID="443" v:groupContext="shape" transform="translate(319.298,7.40625) rotate(90)">
			<title>Sheet.443</title>
			<path d="M0 221.34 L16.87 221.34" class="st1"/>
		</g>
		<g id="shape442-27" v:mID="442" v:groupContext="shape" transform="translate(90.6412,-198.188)">
			<title>Circle.442</title>
			<v:userDefs>
				<v:ud v:nameU="visVersion" v:val="VT0(15):26"/>
			</v:userDefs>
			<path d="M0 214.03 A7.3125 7.3125 0 0 1 14.62 214.03 A7.3125 7.3125 0 1 1 0 214.03 Z" class="st2"/>
		</g>
		<g id="shape334-29" v:mID="334" v:groupContext="shape" transform="translate(119.329,-34.5001)">
			<title>Rectangle.334</title>
			<v:userDefs>
				<v:ud v:nameU="visVersion" v:val="VT0(12):26"/>
			</v:userDefs>
			<rect x="0" y="189.844" width="49.5" height="31.5" class="st3"/>
		</g>
		<g id="shape335-31" v:mID="335" v:groupContext="shape" transform="translate(40.5787,-34.5001)">
			<title>Rectangle.335</title>
			<v:userDefs>
				<v:ud v:nameU="visVersion" v:val="VT0(12):26"/>
			</v:userDefs>
			<rect x="0" y="176.344" width="49.5" height="45" class="st4"/>
		</g>
		<g id="shape336-33" v:mID="336" v:groupContext="shape" transform="translate(123.829,385.688) rotate(180)">
			<title>Sheet.336</title>
			<path d="M0 221.34 L33.75 221.34" class="st5"/>
		</g>
		<g id="group337-36" transform="translate(123.829,-53.6251)" v:mID="337" v:groupContext="group">
			<title>Sheet.337</title>
			<g id="shape338-37" v:mID="338" v:groupContext="shape" transform="translate(210.506,149.555) rotate(71.9958)">
				<title>Sheet.338</title>
				<path d="M0 221.34 L3.55 221.34" class="st5"/>
			</g>
			<g id="shape339-40" v:mID="339" v:groupContext="shape" transform="translate(213.093,285.384) rotate(108.649)">
				<title>Sheet.339</title>
				<path d="M0 221.34 L7.11 221.34" class="st5"/>
			</g>
			<g id="shape340-43" v:mID="340" v:groupContext="shape" transform="translate(218.015,284.133) rotate(108.309)">
				<title>Sheet.340</title>
				<path d="M0 221.34 L7.1 221.34" class="st5"/>
			</g>
			<g id="shape341-46" v:mID="341" v:groupContext="shape" transform="translate(221.999,285.663) rotate(108.728)">
				<title>Sheet.341</title>
				<path d="M0 221.34 L7.11 221.34" class="st5"/>
			</g>
			<g id="shape342-49" v:mID="342" v:groupContext="shape" transform="translate(213.107,143.863) rotate(71.3614)">
				<title>Sheet.342</title>
				<path d="M0 221.34 L7.11 221.34" class="st5"/>
			</g>
			<g id="shape343-52" v:mID="343" v:groupContext="shape" transform="translate(218.125,145.398) rotate(71.7829)">
				<title>Sheet.343</title>
				<path d="M0 221.34 L7.09 221.34" class="st5"/>
			</g>
			<g id="shape344-55" v:mID="344" v:groupContext="shape" transform="translate(221.562,142.247) rotate(70.9221)">
				<title>Sheet.344</title>
				<path d="M0 221.34 L3.54 221.34" class="st5"/>
			</g>
		</g>
		<g id="shape345-58" v:mID="345" v:groupContext="shape" transform="translate(187.806,385.688) rotate(-179.962)">
			<title>Sheet.345</title>
			<path d="M0 221.34 L50.59 221.34" class="st5"/>
		</g>
		<g id="shape346-61" v:mID="346" v:groupContext="shape" transform="translate(374.423,164.356) rotate(90)">
			<title>Sheet.346</title>
			<path d="M0 221.34 L8.99 221.34" class="st5"/>
		</g>
		<g id="shape347-64" v:mID="347" v:groupContext="shape" transform="translate(157.579,394.688) rotate(180)">
			<title>Sheet.347</title>
			<path d="M0 221.34 L9 221.34" class="st5"/>
		</g>
		<g id="shape348-67" v:mID="348" v:groupContext="shape" transform="translate(157.579,396.938) rotate(180)">
			<title>Sheet.348</title>
			<path d="M0 221.34 L9 221.34" class="st5"/>
		</g>
		<g id="shape349-70" v:mID="349" v:groupContext="shape" transform="translate(374.423,175.594) rotate(90)">
			<title>Sheet.349</title>
			<path d="M0 221.34 L5.62 221.34" class="st5"/>
		</g>
		<g id="shape350-73" v:mID="350" v:groupContext="shape" transform="translate(150.829,-40.1251)">
			<title>Sheet.350</title>
			<path d="M0 221.34 L4.5 221.34" class="st5"/>
		</g>
		<g id="shape351-76" v:mID="351" v:groupContext="shape" transform="translate(-31.0905,61.8143) rotate(-56.3099)">
			<title>Sheet.351</title>
			<path d="M0 221.34 L4.06 221.34" class="st5"/>
		</g>
		<g id="shape352-79" v:mID="352" v:groupContext="shape" transform="translate(334.998,58.4393) rotate(56.3099)">
			<title>Sheet.352</title>
			<path d="M0 221.34 L4.06 221.34" class="st5"/>
		</g>
		<g id="shape353-82" v:mID="353" v:groupContext="shape" transform="translate(187.954,-54.7501)">
			<title>Circle.353</title>
			<v:userDefs>
				<v:ud v:nameU="visVersion" v:val="VT0(12):26"/>
			</v:userDefs>
			<path d="M0 219.09 A2.25 2.25 0 0 1 4.5 219.09 A2.25 2.25 0 1 1 0 219.09 Z" class="st6"/>
		</g>
		<g id="shape354-84" v:mID="354" v:groupContext="shape" transform="translate(27.0787,-51.8751)">
			<title>Sheet.354</title>
			<desc>PWM Signal Source</desc>
			<v:textBlock v:margins="rect(4,4,4,4)"/>
			<v:textRect cx="31.5" cy="216.219" width="63" height="10.25"/>
			<rect x="0" y="211.094" width="63" height="10.25" class="st7"/>
			<text x="34.56" y="207.22" class="st8" v:langID="1033"><v:paragraph v:horizAlign="2"/><v:tabList/>PWM <tspan x="31.2"
						dy="1.2em" class="st9">Signal </tspan><tspan x="27.32" dy="1.2em" class="st9">Source</tspan></text>		</g>
		<g id="shape355-89" v:mID="355" v:groupContext="shape" transform="translate(121.579,-42.3751)">
			<title>Sheet.355</title>
			<desc>R</desc>
			<v:textBlock v:margins="rect(4,4,4,4)"/>
			<v:textRect cx="8.15625" cy="216.844" width="16.32" height="9"/>
			<rect x="0" y="212.344" width="16.3125" height="9" class="st7"/>
			<text x="5.09" y="219.84" class="st8" v:langID="1033"><v:paragraph v:horizAlign="2"/><v:tabList/>R</text>		</g>
		<g id="shape356-92" v:mID="356" v:groupContext="shape" transform="translate(153.36,-42.3751)">
			<title>Sheet.356</title>
			<desc>C</desc>
			<v:textBlock v:margins="rect(4,4,4,4)"/>
			<v:textRect cx="8.85937" cy="216.781" width="17.72" height="9.125"/>
			<rect x="0" y="212.219" width="17.7187" height="9.125" class="st7"/>
			<text x="6.5" y="219.78" class="st8" v:langID="1033"><v:paragraph v:horizAlign="2"/><v:tabList/>C</text>		</g>
		<g id="shape357-95" v:mID="357" v:groupContext="shape" transform="translate(152.247,-56.1563)">
			<title>Circle.357</title>
			<v:userDefs>
				<v:ud v:nameU="visVersion" v:val="VT0(12):26"/>
			</v:userDefs>
			<path d="M0 220.51 a0.831485 0.831485 0 0 1 1.66297 0 a0.831485 0.831485 0 1 1 -1.66297 0 Z" class="st10"/>
		</g>
		<g id="shape358-97" v:mID="358" v:groupContext="shape" transform="translate(184.579,-51.3751)">
			<title>Sheet.358</title>
			<desc>VPWM</desc>
			<v:textBlock v:margins="rect(4,4,4,4)"/>
			<v:textRect cx="25.875" cy="216.219" width="51.75" height="10.25"/>
			<rect x="0" y="211.094" width="51.75" height="10.25" class="st7"/>
			<text x="11.31" y="221.62" class="st11" v:langID="1033"><v:paragraph v:horizAlign="2"/><v:tabList/>V<tspan class="st12">PWM</tspan></text>		</g>
		<g id="shape359-101" v:mID="359" v:groupContext="shape" transform="translate(96.8287,-68.7501)">
			<title>Sheet.359</title>
			<desc>Low-pass filter</desc>
			<v:textBlock v:margins="rect(4,4,4,4)"/>
			<v:textRect cx="42.1875" cy="216.219" width="84.38" height="10.25"/>
			<rect x="0" y="211.094" width="84.375" height="10.25" class="st7"/>
			<text x="15.91" y="219.22" class="st8" v:langID="1033"><v:paragraph v:horizAlign="2"/><v:tabList/>Low-pass filter</text>		</g>
		<g id="shape367-104" v:mID="367" v:groupContext="shape" transform="translate(40.5787,-142.813)">
			<title>Sheet.367</title>
			<path d="M0 221.34 L0 185.34 L1.12 185.34 L1.12 221.34 L18 221.34 L18 185.34 L19.12 185.34 L19.12 221.34 L36 221.34"
					class="st5"/>
		</g>
		<g id="shape368-107" v:mID="368" v:groupContext="shape" transform="translate(76.5787,-142.813)">
			<title>Sheet.368</title>
			<path d="M0 221.34 L0 185.34 L1.12 185.34 L1.12 221.34 L18 221.34 L18 185.34 L19.12 185.34 L19.12 221.34 L36 221.34"
					class="st5"/>
		</g>
		<g id="shape369-110" v:mID="369" v:groupContext="shape" transform="translate(112.579,-142.813)">
			<title>Sheet.369</title>
			<path d="M0 221.34 L0 185.34 L1.12 185.34 L1.12 221.34 L18 221.34 L18 185.34 L19.12 185.34 L19.12 221.34 L36 221.34"
					class="st5"/>
		</g>
		<g id="shape370-113" v:mID="370" v:groupContext="shape" transform="translate(148.579,-142.813)">
			<title>Sheet.370</title>
			<path d="M0 221.34 L0 185.34 L1.12 185.34 L1.12 221.34 L18 221.34 L18 185.34 L27 185.34 L27 221.34 L36 221.34"
					class="st5"/>
		</g>
		<g id="shape371-116" v:mID="371" v:groupContext="shape" transform="translate(184.579,-142.813)">
			<title>Sheet.371</title>
			<path d="M0 221.34 L0 185.34 L9 185.34 L9 221.34 L18 221.34 L18 185.34 L27 185.34 L27 221.34 L36 221.34 L36 185.34 L45
						 185.34" class="st5"/>
		</g>
		<g id="shape372-119" v:mID="372" v:groupContext="shape" transform="translate(229.579,-142.813)">
			<title>Sheet.372</title>
			<path d="M0 185.34 L0 221.34 L9 221.34 L9 185.34 L18 185.34 L18 221.34 L27 221.34 L27 185.34 L36 185.34 L36 221.34 L45
						 221.34 L45 185.34 L54 185.34 L54 221.34 L63 221.34 L63 185.34 L72 185.34 L72 221.34" class="st5"/>
		</g>
		<g id="shape373-122" v:mID="373" v:groupContext="shape" transform="translate(301.579,-142.813)">
			<title>Sheet.373</title>
			<path d="M0 221.34 L8.95 221.34 L8.95 185.34 L25.87 185.34 L25.87 221.34" class="st5"/>
		</g>
		<g id="shape374-125" v:mID="374" v:groupContext="shape" transform="translate(327.454,-142.813)">
			<title>Sheet.374</title>
			<path d="M0 221.34 L1.08 221.34 L1.08 185.34 L18 185.34 L18 221.34" class="st5"/>
		</g>
		<g id="shape375-128" v:mID="375" v:groupContext="shape" transform="translate(345.454,-142.813)">
			<title>Sheet.375</title>
			<path d="M0 221.34 L1.08 221.34 L1.08 185.34 L18 185.34 L18 221.34" class="st5"/>
		</g>
		<g id="shape376-131" v:mID="376" v:groupContext="shape" transform="translate(363.454,-142.813)">
			<title>Sheet.376</title>
			<path d="M0 221.34 L1.08 221.34 L1.08 185.34 L18 185.34 L18 221.34" class="st5"/>
		</g>
		<g id="shape377-134" v:mID="377" v:groupContext="shape" transform="translate(381.454,-142.813)">
			<title>Sheet.377</title>
			<path d="M0 221.34 L1.08 221.34 L1.08 185.34 L18 185.34 L18 221.34" class="st5"/>
		</g>
		<g id="shape378-137" v:mID="378" v:groupContext="shape" transform="translate(399.454,-142.813)">
			<title>Sheet.378</title>
			<path d="M0 221.34 L1.08 221.34 L1.08 185.34 L18 185.34 L18 221.34" class="st5"/>
		</g>
		<g id="shape379-140" v:mID="379" v:groupContext="shape" transform="translate(418.438,-142.813)">
			<title>Sheet.379</title>
			<path d="M0 221.34 L1.08 221.34 L1.08 185.34 L18 185.34 L18 221.34" class="st5"/>
		</g>
		<g id="shape380-143" v:mID="380" v:groupContext="shape" transform="translate(436.438,-142.813)">
			<title>Sheet.380</title>
			<path d="M0 221.34 L1.08 221.34 L1.08 185.34 L18 185.34 L18 221.34" class="st5"/>
		</g>
		<g id="shape381-146" v:mID="381" v:groupContext="shape" transform="translate(166.579,308.875) rotate(180)">
			<title>Sheet.381</title>
			<path d="M4.68 221.34 L5.04 221.34 L120.96 221.34" class="st13"/>
		</g>
		<g id="shape382-155" v:mID="382" v:groupContext="shape" transform="translate(310.579,308.875) rotate(180)">
			<title>Sheet.382</title>
			<path d="M4.68 221.34 L5.04 221.34 L138.96 221.34" class="st13"/>
		</g>
		<g id="shape383-162" v:mID="383" v:groupContext="shape" transform="translate(455.563,308.875) rotate(180)">
			<title>Sheet.383</title>
			<path d="M4.68 221.34 L5.04 221.34 L138.96 221.34" class="st13"/>
		</g>
		<g id="shape384-169" v:mID="384" v:groupContext="shape" transform="translate(40.5787,-115.5)">
			<title>Sheet.384</title>
			<desc>10% Duty Cycle</desc>
			<v:textBlock v:margins="rect(4,4,4,4)"/>
			<v:textRect cx="63" cy="216.219" width="126" height="10.25"/>
			<rect x="0" y="211.094" width="126" height="10.25" class="st7"/>
			<text x="27.43" y="219.22" class="st8" v:langID="1033"><v:paragraph v:horizAlign="1"/><v:tabList/>10% Duty Cycle</text>		</g>
		<g id="shape385-172" v:mID="385" v:groupContext="shape" transform="translate(166.579,-115.5)">
			<title>Sheet.385</title>
			<desc>50% Duty Cycle</desc>
			<v:textBlock v:margins="rect(4,4,4,4)"/>
			<v:textRect cx="72" cy="216.219" width="144" height="10.25"/>
			<rect x="0" y="211.094" width="144" height="10.25" class="st7"/>
			<text x="36.43" y="219.22" class="st8" v:langID="1033"><v:paragraph v:horizAlign="1"/><v:tabList/>50% Duty Cycle</text>		</g>
		<g id="shape386-175" v:mID="386" v:groupContext="shape" transform="translate(37.2037,-146.188)">
			<title>Sheet.386</title>
			<path d="M0 221.34 L129.37 221.34 C137.28 221.17 140.91 216.11 146.89 211.94 C150.19 209.65 154.19 207.62 165.37 206.72"
					class="st15"/>
		</g>
		<g id="shape387-178" v:mID="387" v:groupContext="shape" transform="translate(203.563,-160.758)">
			<title>Sheet.387</title>
			<path d="M0 221.3 L107.95 221.3 C117.97 222.13 122.69 218.26 127.97 214.43 C133.17 210.66 138.92 206.92 143.95 207.56
						 L254.25 207.56" class="st15"/>
		</g>
		<g id="shape388-181" v:mID="388" v:groupContext="shape" transform="translate(0.36,-173.656)">
			<title>Sheet.388</title>
			<desc>Vdd</desc>
			<v:textBlock v:margins="rect(4,4,4,4)"/>
			<v:textRect cx="14.3438" cy="216.219" width="28.69" height="10.25"/>
			<rect x="0" y="211.094" width="28.6875" height="10.25" class="st7"/>
			<text x="6.89" y="219.22" class="st8" v:langID="1033"><v:paragraph v:horizAlign="2"/><v:tabList/>Vdd</text>		</g>
		<g id="shape389-184" v:mID="389" v:groupContext="shape" transform="translate(-189.765,87.5313) rotate(-90)">
			<title>Sheet.389</title>
			<path d="M0 221.34 L54 221.34" class="st5"/>
		</g>
		<g id="shape390-187" v:mID="390" v:groupContext="shape" transform="translate(33.8287,263.844) rotate(180)">
			<title>Sheet.390</title>
			<path d="M0 221.34 L4.5 221.34" class="st5"/>
		</g>
		<g id="shape391-190" v:mID="391" v:groupContext="shape" transform="translate(33.8287,299.844) rotate(180)">
			<title>Sheet.391</title>
			<path d="M0 221.34 L4.5 221.34" class="st5"/>
		</g>
		<g id="shape392-193" v:mID="392" v:groupContext="shape" transform="translate(0.64125,-137.719)">
			<title>Sheet.392</title>
			<desc>Gnd</desc>
			<v:textBlock v:margins="rect(4,4,4,4)"/>
			<v:textRect cx="14.3438" cy="216.219" width="28.69" height="10.25"/>
			<rect x="0" y="211.094" width="28.6875" height="10.25" class="st7"/>
			<text x="5.79" y="219.22" class="st8" v:langID="1033"><v:paragraph v:horizAlign="2"/><v:tabList/>Gnd</text>		</g>
		<g id="shape393-196" v:mID="393" v:groupContext="shape" transform="translate(40.5787,-100.75)">
			<title>Sheet.393</title>
			<desc>PWMA = 0.1(Vdd)</desc>
			<v:textBlock v:margins="rect(4,4,4,4)"/>
			<v:textRect cx="63" cy="216.219" width="126" height="10.25"/>
			<rect x="0" y="211.094" width="126" height="10.25" class="st7"/>
			<text x="22.57" y="219.22" class="st8" v:langID="1033"><v:paragraph v:horizAlign="1"/><v:tabList/>PWMA = 0.1(Vdd)</text>		</g>
		<g id="shape394-199" v:mID="394" v:groupContext="shape" transform="translate(166.579,-100.75)">
			<title>Sheet.394</title>
			<desc>PWMA = 0.5(Vdd)</desc>
			<v:textBlock v:margins="rect(4,4,4,4)"/>
			<v:textRect cx="72" cy="216.219" width="144" height="10.25"/>
			<rect x="0" y="211.094" width="144" height="10.25" class="st7"/>
			<text x="31.57" y="219.22" class="st8" v:langID="1033"><v:paragraph v:horizAlign="1"/><v:tabList/>PWMA = 0.5(Vdd)</text>		</g>
		<g id="shape396-202" v:mID="396" v:groupContext="shape" transform="translate(310.579,-115.5)">
			<title>Sheet.396</title>
			<desc>90% Duty Cycle</desc>
			<v:textBlock v:margins="rect(4,4,4,4)"/>
			<v:textRect cx="72" cy="216.219" width="144" height="10.25"/>
			<rect x="0" y="211.094" width="144" height="10.25" class="st7"/>
			<text x="36.43" y="219.22" class="st8" v:langID="1033"><v:paragraph v:horizAlign="1"/><v:tabList/>90% Duty Cycle</text>		</g>
		<g id="shape397-205" v:mID="397" v:groupContext="shape" transform="translate(333.079,-100.75)">
			<title>Sheet.397</title>
			<desc>PWMA = 0.9(Vdd)</desc>
			<v:textBlock v:margins="rect(4,4,4,4)"/>
			<v:textRect cx="54" cy="216.219" width="108" height="10.25"/>
			<rect x="0" y="211.094" width="108" height="10.25" class="st7"/>
			<text x="13.57" y="219.22" class="st8" v:langID="1033"><v:paragraph v:horizAlign="1"/><v:tabList/>PWMA = 0.9(Vdd)</text>		</g>
		<g id="shape399-208" v:mID="399" v:groupContext="shape" transform="translate(283.016,-34.5001)">
			<title>Rectangle.399</title>
			<v:userDefs>
				<v:ud v:nameU="visVersion" v:val="VT0(12):26"/>
			</v:userDefs>
			<rect x="0" y="176.344" width="49.5" height="45" class="st4"/>
		</g>
		<g id="shape400-210" v:mID="400" v:groupContext="shape" transform="translate(366.266,385.688) rotate(180)">
			<title>Sheet.400</title>
			<path d="M0 221.34 L33.75 221.34" class="st5"/>
		</g>
		<g id="group401-213" transform="translate(366.266,-53.6251)" v:mID="401" v:groupContext="group">
			<title>Sheet.401</title>
			<g id="shape402-214" v:mID="402" v:groupContext="shape" transform="translate(210.506,149.555) rotate(71.9958)">
				<title>Sheet.402</title>
				<path d="M0 221.34 L3.55 221.34" class="st5"/>
			</g>
			<g id="shape403-217" v:mID="403" v:groupContext="shape" transform="translate(213.093,285.384) rotate(108.649)">
				<title>Sheet.403</title>
				<path d="M0 221.34 L7.11 221.34" class="st5"/>
			</g>
			<g id="shape404-220" v:mID="404" v:groupContext="shape" transform="translate(218.015,284.133) rotate(108.309)">
				<title>Sheet.404</title>
				<path d="M0 221.34 L7.1 221.34" class="st5"/>
			</g>
			<g id="shape405-223" v:mID="405" v:groupContext="shape" transform="translate(221.999,285.663) rotate(108.728)">
				<title>Sheet.405</title>
				<path d="M0 221.34 L7.11 221.34" class="st5"/>
			</g>
			<g id="shape406-226" v:mID="406" v:groupContext="shape" transform="translate(213.107,143.863) rotate(71.3614)">
				<title>Sheet.406</title>
				<path d="M0 221.34 L7.11 221.34" class="st5"/>
			</g>
			<g id="shape407-229" v:mID="407" v:groupContext="shape" transform="translate(218.125,145.398) rotate(71.7829)">
				<title>Sheet.407</title>
				<path d="M0 221.34 L7.09 221.34" class="st5"/>
			</g>
			<g id="shape408-232" v:mID="408" v:groupContext="shape" transform="translate(221.562,142.247) rotate(70.9221)">
				<title>Sheet.408</title>
				<path d="M0 221.34 L3.54 221.34" class="st5"/>
			</g>
		</g>
		<g id="shape409-235" v:mID="409" v:groupContext="shape" transform="translate(429.392,385.626) rotate(179.967)">
			<title>Sheet.409</title>
			<path d="M0 221.34 L49.47 221.34" class="st5"/>
		</g>
		<g id="shape413-238" v:mID="413" v:groupContext="shape" transform="translate(650.61,164.282) rotate(90)">
			<title>Sheet.413</title>
			<path d="M0 221.34 L10.19 221.34" class="st5"/>
		</g>
		<g id="shape414-241" v:mID="414" v:groupContext="shape" transform="translate(427.016,-46.8751)">
			<title>Sheet.414</title>
			<path d="M0 221.34 L4.5 221.34" class="st5"/>
		</g>
		<g id="shape415-244" v:mID="415" v:groupContext="shape" transform="translate(245.097,55.0643) rotate(-56.3099)">
			<title>Sheet.415</title>
			<path d="M0 221.34 L4.06 221.34" class="st5"/>
		</g>
		<g id="shape416-247" v:mID="416" v:groupContext="shape" transform="translate(611.185,51.6893) rotate(56.3099)">
			<title>Sheet.416</title>
			<path d="M0 221.34 L4.06 221.34" class="st5"/>
		</g>
		<g id="shape418-250" v:mID="418" v:groupContext="shape" transform="translate(269.516,-51.8751)">
			<title>Sheet.418</title>
			<desc>PWM Signal Source</desc>
			<v:textBlock v:margins="rect(4,4,4,4)"/>
			<v:textRect cx="31.5" cy="216.219" width="63" height="10.25"/>
			<rect x="0" y="211.094" width="63" height="10.25" class="st7"/>
			<text x="34.56" y="207.22" class="st8" v:langID="1033"><v:paragraph v:horizAlign="2"/><v:tabList/>PWM <tspan x="31.2"
						dy="1.2em" class="st9">Signal </tspan><tspan x="27.32" dy="1.2em" class="st9">Source</tspan></text>		</g>
		<g id="shape419-255" v:mID="419" v:groupContext="shape" transform="translate(364.016,-42.3751)">
			<title>Sheet.419</title>
			<desc>R</desc>
			<v:textBlock v:margins="rect(4,4,4,4)"/>
			<v:textRect cx="8.15625" cy="216.844" width="16.32" height="9"/>
			<rect x="0" y="212.344" width="16.3125" height="9" class="st7"/>
			<text x="5.09" y="219.84" class="st8" v:langID="1033"><v:paragraph v:horizAlign="2"/><v:tabList/>R</text>		</g>
		<g id="shape424-258" v:mID="424" v:groupContext="shape" transform="translate(272.329,-9.68759)">
			<title>Sheet.424</title>
			<desc>Pulse frequency &#62; 60Hz</desc>
			<v:textBlock v:margins="rect(4,4,4,4)"/>
			<v:textRect cx="92.25" cy="216.219" width="184.5" height="10.25"/>
			<rect x="0" y="211.094" width="184.5" height="10.25" class="st7"/>
			<text x="39.02" y="219.22" class="st8" v:langID="1033"><v:paragraph v:horizAlign="1"/><v:tabList/>Pulse frequency &#62; 60Hz  </text>		</g>
		<g id="shape428-261" v:mID="428" v:groupContext="shape" transform="translate(614.812,157.453) rotate(90)">
			<title>Triangle</title>
			<v:userDefs>
				<v:ud v:nameU="visVersion" v:val="VT0(15):26"/>
			</v:userDefs>
			<path d="M13.78 221.34 L6.89 209.4 L0 221.34 L13.78 221.34 Z" class="st16"/>
		</g>
		<g id="shape429-263" v:mID="429" v:groupContext="shape" transform="translate(626.985,157.594) rotate(90)">
			<title>Sheet.429</title>
			<path d="M0 221.34 L13.53 221.34" class="st5"/>
		</g>
		<g id="shape430-266" v:mID="430" v:groupContext="shape" transform="translate(116.516,-0.750092)">
			<title>Sheet.430</title>
			<desc>3dB frequency</desc>
			<v:textBlock v:margins="rect(4,4,4,4)"/>
			<v:textRect cx="42.1875" cy="210.094" width="84.38" height="22.5"/>
			<rect x="0" y="198.844" width="84.375" height="22.5" class="st7"/>
			<text x="33.29" y="207.09" class="st8" v:langID="1033"><v:paragraph v:horizAlign="1"/><v:tabList/>3dB<v:newlineChar/><tspan
						x="20.23" dy="1.2em" class="st9">frequency</tspan></text>		</g>
		<g id="shape431-270" v:mID="431" v:groupContext="shape" transform="translate(53.5162,-0.750092)">
			<title>Sheet.431</title>
			<desc>Pulse frequency</desc>
			<v:textBlock v:margins="rect(4,4,4,4)"/>
			<v:textRect cx="34.8462" cy="210.094" width="69.7" height="22.5"/>
			<rect x="0" y="198.844" width="69.6923" height="22.5" class="st7"/>
			<text x="22.34" y="207.09" class="st8" v:langID="1033"><v:paragraph v:horizAlign="1"/><v:tabList/>Pulse<v:newlineChar/><tspan
						x="12.89" dy="1.2em" class="st9">frequency</tspan></text>		</g>
		<g id="shape433-274" v:mID="433" v:groupContext="shape" transform="translate(116.516,-6.37509)">
			<title>Sheet.433</title>
			<path d="M0 210.09 L6.69 215.67 L0 221.34" class="st17"/>
		</g>
		<g id="shape434-277" v:mID="434" v:groupContext="shape" transform="translate(125.516,-5.25009)">
			<title>Sheet.434</title>
		</g>
		<g id="shape435-278" v:mID="435" v:groupContext="shape" transform="translate(124.391,-6.37509)">
			<title>Sheet.435</title>
			<path d="M0 210.09 L6.69 215.67 L0 221.34" class="st17"/>
		</g>
		<g id="shape439-281" v:mID="439" v:groupContext="shape" transform="translate(92.8288,-200.313)">
			<title>Circle.439</title>
			<v:userDefs>
				<v:ud v:nameU="visVersion" v:val="VT0(15):26"/>
			</v:userDefs>
			<path d="M0 216.22 A5.125 5.125 0 0 1 10.25 216.22 A5.125 5.125 0 1 1 0 216.22 Z" class="st18"/>
		</g>
		<g id="shape440-283" v:mID="440" v:groupContext="shape" transform="translate(240.141,-200.179)">
			<title>Circle.440</title>
			<v:userDefs>
				<v:ud v:nameU="visVersion" v:val="VT0(15):26"/>
			</v:userDefs>
			<path d="M0 216.22 A5.125 5.125 0 0 1 10.25 216.22 A5.125 5.125 0 1 1 0 216.22 Z" class="st19"/>
		</g>
		<g id="shape452-285" v:mID="452" v:groupContext="shape" transform="translate(219.503,161.014) rotate(45) scale(1,-1)">
			<title>Sheet.452</title>
			<path d="M0 221.34 L31.93 221.34" class="st1"/>
		</g>
		<g id="shape453-288" v:mID="453" v:groupContext="shape" transform="translate(219.283,-129.106) rotate(-45)">
			<title>Sheet.453</title>
			<path d="M0 221.34 L31.93 221.34" class="st1"/>
		</g>
		<g id="shape454-291" v:mID="454" v:groupContext="shape" transform="translate(371.891,-205.5)">
			<title>Sheet.454</title>
			<path d="M0 221.34 L30.94 221.34" class="st1"/>
		</g>
		<g id="shape455-294" v:mID="455" v:groupContext="shape" transform="translate(608.704,0.375) rotate(90)">
			<title>Sheet.455</title>
			<path d="M0 221.34 L30.94 221.34" class="st1"/>
		</g>
		<g id="shape456-297" v:mID="456" v:groupContext="shape" transform="translate(379.766,-197.906)">
			<title>Circle.456</title>
			<v:userDefs>
				<v:ud v:nameU="visVersion" v:val="VT0(15):26"/>
			</v:userDefs>
			<path d="M0 214.03 A7.3125 7.3125 0 0 1 14.62 214.03 A7.3125 7.3125 0 1 1 0 214.03 Z" class="st2"/>
		</g>
		<g id="shape441-299" v:mID="441" v:groupContext="shape" transform="translate(381.954,-199.898)">
			<title>Circle.441</title>
			<v:userDefs>
				<v:ud v:nameU="visVersion" v:val="VT0(15):26"/>
			</v:userDefs>
			<path d="M0 216.22 A5.125 5.125 0 0 1 10.25 216.22 A5.125 5.125 0 1 1 0 216.22 Z" class="st20"/>
		</g>
		<g id="shape457-301" v:mID="457" v:groupContext="shape" transform="translate(475.954,-170.625)">
			<title>Sheet.457</title>
			<desc>VPWM</desc>
			<v:textBlock v:margins="rect(4,4,4,4)"/>
			<v:textRect cx="25.875" cy="216.219" width="51.75" height="10.25"/>
			<rect x="0" y="211.094" width="51.75" height="10.25" class="st7"/>
			<text x="4" y="221.62" class="st11" v:langID="1033"><v:paragraph/><v:tabList/>V<tspan class="st12">PWM</tspan></text>		</g>
		<g id="shape458-305" v:mID="458" v:groupContext="shape" transform="translate(472.579,-201.5)">
			<title>Sheet.458</title>
			<desc>LED Brightness</desc>
			<v:textBlock v:margins="rect(4,4,4,4)"/>
			<v:textRect cx="45" cy="216.219" width="90" height="10.25"/>
			<rect x="0" y="211.094" width="90" height="10.25" class="st7"/>
			<text x="4" y="213.22" class="st21" v:langID="1033"><v:paragraph v:spLine="-1"/><v:tabList/>LED<v:newlineChar/><tspan
						x="4" dy="1em" class="st9">Brightness</tspan></text>		</g>
		<g id="shape459-309" v:mID="459" v:groupContext="shape" transform="translate(461.329,265.313) scale(1,-1)">
			<title>Sheet.459</title>
			<path d="M7.56 221.34 L7.92 221.34 L13.5 221.34" class="st22"/>
		</g>
		<g id="shape460-315" v:mID="460" v:groupContext="shape" transform="translate(418.579,237.188) scale(1,-1)">
			<title>Sheet.460</title>
			<path d="M7.56 221.34 L7.92 221.34 L54 221.34" class="st22"/>
		</g>
	</g>
</svg>
